{"title":"Whats Your Number 2011 R5 CAM AUDiO XViD - U.S.M","uid":6765775,"size":1504399614,"categoryP":"video","categoryS":"movies","magnet":"?xt=urn:btih:ecd5debfaf4b2889a336c34eae4199e49e1422e9&amp;dn=Whats+Your+Number+2011+R5+CAM+AUDiO+XViD+-+U.S.M&amp;tr=udp%3A%2F%2Ftracker.openbittorrent.com%3A80&amp;tr=udp%3A%2F%2Fopen.demonii.com%3A1337&amp;tr=udp%3A%2F%2Ftracker.coppersurfer.tk%3A6969&amp;tr=udp%3A%2F%2Fexodus.desync.com%3A6969","seeders":0,"leechers":1,"uploader":"SAFCukO09","files":3,"time":1319381521,"description":"Whats Your Number 2011 R5 CAM AUDiO XViD - U.S.M\n\n\nSOURCES:\n\nWhat's.Your.Number.2011.RUSSIAN DVD9\nVISUALiSE\n\nIMDB:\n &lt;a href=&quot;\nhttp://www.imdb.com/title/tt0770703/&quot; rel=&quot;nofollow&quot; target=&quot;_NEW&quot;&gt;\nhttp://www.imdb.com/title/tt0770703/&lt;/a&gt;\n\nVideo\nID : 0\nFormat : MPEG-4 Visual\nFormat profile : Advanced Simple@L5\nFormat settings, BVOP : 2\nFormat settings, QPel : No\nFormat settings, GMC : No warppoints\nFormat settings, Matrix : Default (MPEG)\nMuxing mode : Packed bitstream\nCodec ID : XVID\nCodec ID/Hint : XviD\nDuration : 1h 41mn\nBit rate : 1 805 Kbps\nWidth : 720 pixels\nHeight : 384 pixels\nDisplay aspect ratio : 1.875\nFrame rate : 25.000 fps\nColor space : YUV\nChroma subsampling : 4:2:0\nBit depth : 8 bits\nScan type : Progressive\nCompression mode : Lossy\nBits/(Pixel*Frame) : 0.261\nStream size : 1.28 GiB (93%)\nWriting library : XviD 64\n\nAudio\nID : 1\nFormat : MPEG Audio\nFormat version : Version 1\nFormat profile : Layer 3\nCodec ID : 55\nCodec ID/Hint : MP3\nDuration : 1h 41mn\nBit rate mode : Constant\nBit rate : 128 Kbps\nChannel(s) : 2 channels\nSampling rate : 44.1 KHz\nCompression mode : Lossy\nStream size : 93.3 MiB (7%)\nAlignment : Split accross interleaves\nInterleave, duration : 40 ms (1.00 video frame)\nInterleave, preload duration : 500 ms\n\n\nWORKDonE:\n\nChanged colours,lowered chroma,altered brightness,contrast and sharpness.Used a HQ\nsmoother.\nAudio fixed the small oos part and remastered the audio file,then muxed to our encode.\nCheck sample for Q.\n","torrent":{"xt":"urn:btih:ecd5debfaf4b2889a336c34eae4199e49e1422e9","amp;dn":"Whats+Your+Number+2011+R5+CAM+AUDiO+XViD+-+U.S.M","amp;tr":["udp%3A%2F%2Ftracker.openbittorrent.com%3A80","udp%3A%2F%2Fopen.demonii.com%3A1337","udp%3A%2F%2Ftracker.coppersurfer.tk%3A6969","udp%3A%2F%2Fexodus.desync.com%3A6969"],"infoHash":"ecd5debfaf4b2889a336c34eae4199e49e1422e9","infoHashBuffer":{"type":"Buffer","data":[236,213,222,191,175,75,40,137,163,54,195,78,174,65,153,228,158,20,34,233]},"announce":[],"urlList":[]}}